<?xml version="1.0" standalone="no"?>
<!DOCTYPE svg PUBLIC "-//W3C//DTD SVG 20010904//EN"
 "http://www.w3.org/TR/2001/REC-SVG-20010904/DTD/svg10.dtd">
<svg version="1.0" xmlns="http://www.w3.org/2000/svg"
 width="37.000000pt" height="117.000000pt" viewBox="0 0 37.000000 117.000000"
 preserveAspectRatio="xMidYMid meet">

<g transform="translate(0.000000,117.000000) scale(0.100000,-0.100000)"
fill="currentColor" stroke="currentColor">
<path fill="currentColor" d="M130 957 l0 -212 -28 -13 c-42 -18 -72 -79 -72 -143 0 -63 25 -111
70 -137 l30 -17 0 -212 0 -213 60 0 60 0 0 213 0 212 30 13 c37 17 68 67 76
124 9 62 -22 130 -70 159 l-36 21 0 209 0 209 -60 0 -60 0 0 -213z"/>
</g>
</svg>
